<svg width="31" height="8" viewBox="0 0 31 8" fill="none" xmlns="http://www.w3.org/2000/svg">
<path d="M0 6.99511V0.313214H1.66941V3.13866H1.76047L4.04369 0.313214H6.00989L3.56142 3.29527L6.05373 6.99511H4.05718L2.33718 4.36868L1.66941 5.18434V6.99511H0Z" fill="#6A6A6A"/>
<path d="M8.5678 0.313214H10.6352L12.3889 4.45024H12.4698L14.2236 0.313214H16.2909V6.99511H14.6654V2.8907H14.608L12.9487 6.95269H11.91L10.2507 2.86786H10.1934V6.99511H8.5678V0.313214Z" fill="#6A6A6A"/>
<path d="M22.4288 0L20.2029 8H18.7966L21.0225 0H22.4288Z" fill="#6A6A6A"/>
<path d="M24.9429 6.99511V0.313214H26.6123V2.99511H29.334V0.313214H31V6.99511H29.334V4.30995H26.6123V6.99511H24.9429Z" fill="#6A6A6A"/>
</svg>
