<svg width="26" height="7" viewBox="0 0 26 7" fill="none" xmlns="http://www.w3.org/2000/svg">
<path d="M0 0H2.16603L4.00345 4.33398H4.08826L5.92567 0H8.09171V7H6.38856V2.7002H6.32849L4.59001 6.95557H3.5017L1.76321 2.67627H1.70315V7H0V0Z" fill="#6A6A6A"/>
<path d="M11.1727 7V0H14.1621C14.7039 0 15.1715 0.102539 15.5649 0.307617C15.9606 0.510417 16.2657 0.794108 16.4801 1.15869C16.6944 1.521 16.8016 1.94255 16.8016 2.42334C16.8016 2.90641 16.6921 3.3291 16.473 3.69141C16.2563 4.05143 15.9465 4.33057 15.5437 4.52881C15.1409 4.72705 14.6627 4.82617 14.1091 4.82617H12.2646V3.49316H13.784C14.0478 3.49316 14.2681 3.44873 14.4448 3.35986C14.6238 3.271 14.7592 3.14681 14.8511 2.9873C14.943 2.82552 14.9889 2.63753 14.9889 2.42334C14.9889 2.20687 14.943 2.02002 14.8511 1.86279C14.7592 1.70329 14.6238 1.58024 14.4448 1.49365C14.2657 1.40706 14.0455 1.36377 13.784 1.36377H12.9218V7H11.1727Z" fill="#6A6A6A"/>
<path d="M19.6538 7V0H21.4029V2.80957H24.2544V0H26V7H24.2544V4.18701H21.4029V7H19.6538Z" fill="#6A6A6A"/>
</svg>
