<svg width="16" height="7" viewBox="0 0 16 7" fill="none" xmlns="http://www.w3.org/2000/svg">
<path d="M0 7V0H2.88602C3.40909 0 3.86053 0.102539 4.24033 0.307617C4.6224 0.510417 4.91692 0.794108 5.12388 1.15869C5.33083 1.521 5.43431 1.94255 5.43431 2.42334C5.43431 2.90641 5.32856 3.3291 5.11705 3.69141C4.90782 4.05143 4.60876 4.33057 4.21986 4.52881C3.83097 4.72705 3.36929 4.82617 2.83485 4.82617H1.05411V3.49316H2.521C2.77572 3.49316 2.98836 3.44873 3.15893 3.35986C3.33177 3.271 3.46254 3.14681 3.55123 2.9873C3.63993 2.82552 3.68428 2.63753 3.68428 2.42334C3.68428 2.20687 3.63993 2.02002 3.55123 1.86279C3.46254 1.70329 3.33177 1.58024 3.15893 1.49365C2.98608 1.40706 2.77344 1.36377 2.521 1.36377H1.68863V7H0Z" fill="#6A6A6A"/>
<path d="M8.18797 0H10.2791L12.053 4.33398H12.1349L13.9088 0H16V7H14.3557V2.7002H14.2977L12.6193 6.95557H11.5686L9.89024 2.67627H9.83224V7H8.18797V0Z" fill="#6A6A6A"/>
</svg>
