<svg width="70" height="7" viewBox="0 0 70 7" fill="none" xmlns="http://www.w3.org/2000/svg">
<path d="M0 0.0932447H2.05303L3.79458 4.31589H3.87496L5.61652 0.0932447H7.66954V6.91342H6.05526V2.72407H5.99832L4.35054 6.87012H3.319L1.67122 2.70076H1.61429V6.91342H0V0.0932447Z" fill="#6A6A6A"/>
<path d="M12.0735 6.91342H10.2918L12.606 0.0932447H14.8131L17.1274 6.91342H15.3456L13.7347 1.81161H13.6811L12.0735 6.91342ZM11.8357 4.22931H15.56V5.48145H11.8357V4.22931Z" fill="#6A6A6A"/>
<path d="M21.43 0.0932447L22.6826 2.24786H22.7362L24.0022 0.0932447H25.8576L23.7878 3.50333L25.9246 6.91342H24.0223L22.7362 4.73549H22.6826L21.3965 6.91342H19.5076L21.6343 3.50333L19.5612 0.0932447H21.43Z" fill="#6A6A6A"/>
<path d="M36.2212 2.13796C36.1989 1.89375 36.0995 1.70393 35.9231 1.56851C35.749 1.43086 35.5 1.36204 35.1763 1.36204C34.9619 1.36204 34.7833 1.38979 34.6404 1.44529C34.4975 1.50079 34.3903 1.57739 34.3189 1.67507C34.2474 1.77054 34.2106 1.88043 34.2083 2.00476C34.2039 2.10688 34.224 2.1968 34.2686 2.2745C34.3155 2.3522 34.3825 2.42103 34.4696 2.48097C34.5589 2.53869 34.6661 2.58976 34.7911 2.63416C34.9161 2.67856 35.0568 2.71741 35.2131 2.75071L35.8025 2.88392C36.1419 2.95718 36.4411 3.05487 36.7001 3.17697C36.9613 3.29908 37.1802 3.4445 37.3565 3.61323C37.5352 3.78195 37.6702 3.97621 37.7618 4.196C37.8533 4.41579 37.9002 4.66223 37.9025 4.9353C37.9002 5.366 37.7908 5.73565 37.5742 6.04424C37.3577 6.35284 37.0462 6.58928 36.6398 6.75357C36.2357 6.91786 35.7478 7 35.1763 7C34.6024 7 34.1023 6.91453 33.6758 6.74358C33.2494 6.57263 32.9178 6.31288 32.6811 5.96432C32.4445 5.61576 32.3228 5.17507 32.3161 4.64225H33.9036C33.917 4.86204 33.9761 5.0452 34.0811 5.19172C34.186 5.33825 34.33 5.44925 34.5131 5.52474C34.6984 5.60022 34.9128 5.63796 35.1562 5.63796C35.3794 5.63796 35.5692 5.60799 35.7255 5.54805C35.884 5.48811 36.0057 5.40485 36.0906 5.29829C36.1754 5.19172 36.2189 5.06962 36.2212 4.93197C36.2189 4.8032 36.1788 4.69331 36.1006 4.60228C36.0225 4.50904 35.9019 4.42911 35.7389 4.36251C35.5781 4.29369 35.3727 4.23042 35.1227 4.17269L34.4059 4.00618C33.812 3.87076 33.3443 3.65208 33.0027 3.35014C32.661 3.04599 32.4913 2.63527 32.4936 2.11798C32.4913 1.69616 32.6052 1.32651 32.8352 1.00904C33.0652 0.691563 33.3833 0.444022 33.7897 0.266413C34.1961 0.0888046 34.6594 0 35.1796 0C35.711 0 36.1721 0.0899144 36.5628 0.269743C36.9558 0.447352 37.2605 0.697114 37.4771 1.01903C37.6937 1.34095 37.8042 1.71392 37.8087 2.13796H36.2212Z" fill="#6A6A6A"/>
<path d="M40.626 6.91342V0.0932447H43.4594C43.9729 0.0932447 44.4161 0.19315 44.789 0.392959C45.1641 0.590549 45.4532 0.866952 45.6564 1.22217C45.8596 1.57517 45.9612 1.98589 45.9612 2.45433C45.9612 2.92499 45.8573 3.33682 45.6497 3.68982C45.4443 4.0406 45.1507 4.31256 44.7689 4.50571C44.3871 4.69886 43.9338 4.79543 43.4091 4.79543H41.6609V3.49667H43.101C43.3511 3.49667 43.5598 3.45338 43.7273 3.36679C43.897 3.28021 44.0254 3.15921 44.1124 3.00381C44.1995 2.84618 44.2431 2.66302 44.2431 2.45433C44.2431 2.24342 44.1995 2.06137 44.1124 1.90818C44.0254 1.75277 43.897 1.63289 43.7273 1.54853C43.5576 1.46416 43.3488 1.42198 43.101 1.42198H42.2838V6.91342H40.626Z" fill="#6A6A6A"/>
<path d="M48.6646 6.91342V0.0932447H53.4472V1.43197H50.3224V2.83064H53.2027V4.17269H50.3224V5.57469H53.4472V6.91342H48.6646Z" fill="#6A6A6A"/>
<path d="M56.3717 6.91342V0.0932447H61.1542V1.43197H58.0295V2.83064H60.9097V4.17269H58.0295V5.57469H61.1542V6.91342H56.3717Z" fill="#6A6A6A"/>
<path d="M66.614 6.91342H64.0787V0.0932447H66.6107C67.3095 0.0932447 67.9112 0.229781 68.4159 0.502855C68.9227 0.773708 69.3134 1.16445 69.5881 1.67507C69.8627 2.18348 70 2.79179 70 3.5C70 4.21043 69.8627 4.82096 69.5881 5.33159C69.3157 5.84221 68.926 6.23406 68.4192 6.50714C67.9124 6.77799 67.3106 6.91342 66.614 6.91342ZM65.7365 5.50809H66.5504C66.9344 5.50809 67.2593 5.4437 67.525 5.31494C67.7929 5.18395 67.995 4.97193 68.1312 4.67888C68.2696 4.3836 68.3388 3.99064 68.3388 3.5C68.3388 3.00936 68.2696 2.61862 68.1312 2.32778C67.9927 2.03473 67.7884 1.82382 67.5183 1.69505C67.2504 1.56407 66.9199 1.49857 66.5269 1.49857H65.7365V5.50809Z" fill="#6A6A6A"/>
</svg>
